<svg width="235" height="167" viewBox="0 0 235 167" fill="none" xmlns="http://www.w3.org/2000/svg">
<path d="M233.274 145.29C233.274 156.522 182.911 165.623 120.75 165.623C58.6178 165.623 8.23969 156.525 8.23969 145.29C8.23969 134.063 58.6178 124.954 120.75 124.954C182.911 124.954 233.274 134.066 233.274 145.29Z" fill="#D1D2D2"/>
<path d="M210.802 142.917C210.802 151.901 170.5 159.184 120.775 159.184C71.0765 159.184 30.7593 151.901 30.7593 142.917C30.7593 133.943 71.0765 126.65 120.775 126.65C170.504 126.65 210.802 133.943 210.802 142.917Z" fill="#888787"/>
<path d="M200.301 53.037H41.5656C35.9183 53.037 31.3578 56.0977 31.3578 59.8878L39.2046 130.039C39.2046 132.023 40.4788 133.797 42.4763 135.053C47.3415 144.693 78.6956 152.169 120.063 152.169C160.527 152.169 191.272 145.024 197.319 135.709C200.011 134.464 201.777 132.401 201.777 130.039L210.49 59.8878C210.49 56.0977 205.93 53.037 200.297 53.037" fill="#BFC0BF"/>
<path d="M99.3977 135.053C98.3776 134.432 97.5575 133.663 96.993 132.798C96.4285 131.933 96.1328 130.992 96.126 130.039L91.0295 59.8878C91.0295 56.0977 95.5899 53.037 101.223 53.037H41.114C35.4703 53.037 30.9245 56.0977 30.9245 59.8878L38.7713 130.039C38.7713 132.023 40.0308 133.797 42.043 135.053C46.8935 144.693 78.2477 152.169 119.63 152.169C130.256 152.169 140.405 151.669 149.699 150.773C122.784 148.186 103.011 142.219 99.405 135.066" fill="#D7D7D7"/>
<path d="M121.113 129.32C161.067 129.32 195.175 121.995 208.625 111.677L209.649 96.9207C196.941 107.673 162.11 115.397 121.12 115.397C79.8192 115.397 44.7565 107.556 32.2978 96.6732L33.1681 111.328C46.3134 121.826 80.7225 129.32 121.113 129.32Z" fill="#E7128B"/>
<path d="M120.922 82.8468C172.127 82.8468 213.637 72.8581 213.637 60.5364C213.637 48.2147 172.127 38.226 120.922 38.226C69.7172 38.226 28.2073 48.2147 28.2073 60.5364C28.2073 72.8581 69.7172 82.8468 120.922 82.8468Z" fill="#E7128B"/>
<path d="M219.027 63.037C219.027 64.5348 218.436 65.9987 217.305 67.4314C217.015 67.7804 216.681 68.2389 216.347 68.5827C214.305 70.6249 214.305 73.1203 212.771 75.3188C210.439 77.1578 208.082 79.1088 205.636 81.039C202.886 83.5449 200.18 85.7928 197.484 87.4886C185.496 103.037 164.812 94.7066 145.674 90.3331C142.377 89.7183 138.973 88.9864 135.254 88.257C131.603 87.742 127.885 87.508 124.164 87.5589C117.955 87.835 112.381 89.9736 106.925 89.674C103.87 89.5282 101.035 87.0327 97.5434 86.3763C96.7613 86.2409 95.7625 86.0038 94.951 85.8397C94.257 85.8293 93.5337 85.8397 92.8397 85.8501C91.1029 86.0038 89.3514 86.2304 87.4971 86.4466C86.7738 86.5482 85.9182 86.6941 84.7909 86.9702C82.0554 87.9132 79.3492 89.9163 77.2342 89.9684C62.7009 85.4386 44.7638 90.07 32.3419 82.654C25.4534 78.9577 28.2037 71.5418 26.2319 66.2045C25.6462 65.1985 25.3467 64.1202 25.3506 63.0318C25.3506 50.1639 68.7081 39.7289 122.182 39.7289C175.688 39.7342 219.027 50.1743 219.027 63.037Z" fill="#E7128B"/>
<path d="M102.728 75.1026C102.728 64.0164 142.091 55.0245 190.658 55.0245C195.333 55.0245 199.908 55.1053 204.38 55.272C194.055 46.7984 160.061 40.5911 119.707 40.5911C71.1536 40.5911 31.7948 49.5674 31.7948 60.6588C31.7948 70.6822 63.9457 78.9968 105.967 80.4894C103.881 78.7728 102.739 76.9755 102.739 75.1026" fill="#D167A7"/>
<path d="M204.336 73.3782C204.017 73.7741 203.653 74.1492 203.308 74.5399C202.845 74.6103 202.442 74.704 202.28 74.816C197.167 78.1398 191.298 80.8267 184.923 82.7634C184.402 82.8754 183.91 83.0004 183.418 83.102C181.853 83.4615 179.29 83.9746 177.263 84.7144C173.155 85.5558 168.216 86.7071 166.769 89.3458C166.696 89.4708 166.857 89.562 167.059 89.5933C185.386 92.1981 200.543 81.8413 207.523 73.0708C207.832 72.6801 204.733 72.8624 204.325 73.3782H204.336ZM183.278 85.3135C181.906 85.8036 180.483 86.219 179.022 86.556C179.819 86.2877 180.586 86.0429 181.02 85.91C181.773 85.7016 182.525 85.5089 183.278 85.3135ZM170.423 88.3013C170.637 88.4351 170.896 88.5275 171.175 88.5696C171.014 88.8274 171.972 88.8665 172.45 88.8275C172.71 88.804 172.956 88.7832 173.217 88.7545C174.605 88.8275 176.081 88.8066 177.601 88.6946H177.66C179.057 88.6191 180.437 88.4294 181.773 88.1294C181.945 88.0877 182.136 88.0694 182.309 88.0278C181.732 88.1893 181.152 88.3456 180.557 88.4888C178.964 88.8874 170.452 89.4917 170.423 88.3013Z" fill="white"/>
<path d="M32.4447 69.8695C32.9808 72.0732 34.4422 73.8653 37.6698 74.6546C38.0186 74.7457 40.4494 74.4279 40.0859 74.058C38.0296 71.9742 36.179 69.8018 34.1228 67.7153C33.6601 67.2386 31.1999 67.9263 31.457 68.1946C33.5132 70.2836 35.3785 72.4509 37.4238 74.5321C38.2352 74.3368 39.0431 74.131 39.8399 73.9252C36.8289 73.1854 35.5988 71.3881 35.1215 69.3876C35.0224 68.9604 32.3272 69.3667 32.4447 69.8695Z" fill="white"/>
<path d="M110.138 41.4221C107.52 48.1582 107.303 56.5301 109.675 63.4512C110.63 66.2748 112.279 70.4243 116.376 71.7397C120.632 73.0838 124.73 72.0471 126.742 69.1089C128.538 66.5301 128.06 62.8963 127.322 60.0909C125.211 52.0394 125.295 45.2929 132.434 38.5463C132.724 38.2885 133.91 34.6938 133.377 34.2223C124.961 26.7543 112.932 34.3135 110.138 41.4195" fill="#8A603E"/>
<path d="M125.872 31.1746C119.039 30.9063 112.15 36.2697 110.12 41.4247C107.501 48.1712 107.285 56.5431 109.642 63.4537C110.612 66.2774 112.26 70.4269 116.358 71.7423C116.909 71.9116 117.46 72.0393 117.996 72.1409C114.434 57.6189 115.477 43.9175 125.872 31.1746Z" fill="#755137"/>
<path d="M141.61 37.2752C140.075 33.4357 136.513 29.7993 132.793 26.525C130.028 24.1104 127.15 22.089 125.659 19.2732C123.849 15.8452 126.485 11.2425 126.426 7.68948C126.426 7.52537 126.382 7.3795 126.353 7.22582C126.586 5.5778 126.314 3.91348 125.556 2.34697C124.007 -1.01067 114.845 0.411573 116.406 3.78483C121.01 13.7249 95.7331 19.6821 93.8091 29.4581C91.7381 40.0051 104.535 51.5783 121.414 55.8503C124.238 56.5692 126.871 55.707 128.046 54.514C140.512 51.1694 144.679 45.0272 141.61 37.2752Z" fill="#D7B62A"/>
<path d="M114.452 29.4789C115.264 25.3607 120.228 21.9145 125.365 18.562C124.223 15.2357 126.452 11.0236 126.408 7.72853C126.408 7.55401 126.364 7.41074 126.335 7.25706C126.566 5.75667 126.349 4.14428 125.538 2.3782C123.988 -0.979429 114.827 0.45844 116.387 3.81607C120.992 13.7665 95.7148 19.7134 93.7907 29.4789C91.7198 40.0467 104.516 51.6096 121.396 55.8815C124.22 56.6004 126.852 55.7487 128.027 54.5452C129.805 54.0701 131.523 53.4897 133.164 52.8104C120.937 47.3585 112.76 38.0905 114.452 29.4789Z" fill="#FBCD0F"/>
<path d="M159.895 64.7041C158.563 66.2904 156.55 67.1839 155.39 66.7072C154.244 66.2149 154.395 64.5348 155.71 62.9484L185.749 27.0147C187.078 25.4232 189.094 24.5245 190.255 25.0116C191.396 25.4935 191.25 27.1789 189.935 28.7704L159.895 64.7041Z" fill="#FAA92F"/>
<path d="M201.949 20.2787L213.63 26.9835L199.016 29.4893L193.636 39.4633L185.749 30.375L170.72 29.8306L180.473 21.6957L176.58 11.3857L190.482 15.4519L203.091 9.62488L201.949 20.2787Z" fill="#28A6DE"/>
<path d="M199.273 13.8707C200.371 12.438 201.645 11.0991 203.077 9.84619L203.091 9.62738L190.482 15.4544L176.569 11.3856L180.476 21.6956L170.72 29.8305L185.749 30.3749L193.636 39.4736L195.924 35.2329C193.058 28.0755 194.261 20.4066 199.273 13.8707Z" fill="#28A6DE"/>
<path d="M87.0932 62.2816C87.9487 63.5449 87.89 64.8187 86.9794 65.1261C86.0541 65.4334 84.633 64.6624 83.7922 63.399L64.7131 34.8917C63.8723 33.6284 63.9163 32.3651 64.8453 32.0473C65.7596 31.7503 67.177 32.5187 68.0288 33.7717L87.0932 62.2816Z" fill="#FAA92F"/>
<path d="M65.5797 24.8501L76.4521 22.4771L72.5012 30.0441L79.0445 36.6239L67.68 36.3087L60.8613 42.7583L57.7916 34.9959L47.022 32.391L56.4881 27.9133L56.6644 19.8514L65.5797 24.8501Z" fill="#28A6DE"/>
<path d="M58.7867 23.3393C57.9931 22.255 57.3441 21.1204 56.848 19.9504L56.6607 19.8462L56.4881 27.9082L47.022 32.3859L57.7916 34.9907L60.8613 42.7531L67.68 36.3036L79.0445 36.6318L76.2649 33.829C68.7233 32.0918 62.4461 28.3216 58.7867 23.3315" fill="#28A6DE"/>
</svg>
