<svg width="220" height="165" viewBox="0 0 220 165" fill="none" xmlns="http://www.w3.org/2000/svg">
<path d="M208.094 143.8C208.094 154.917 163.167 163.925 107.716 163.925C52.2904 163.925 7.35022 154.92 7.35022 143.8C7.35022 132.688 52.2904 123.673 107.716 123.673C163.167 123.673 208.094 132.691 208.094 143.8Z" fill="#D1D2D2"/>
<path d="M188.048 141.451C188.048 150.343 152.096 157.552 107.739 157.552C63.4043 157.552 27.4391 150.343 27.4391 141.451C27.4391 132.57 63.4043 125.351 107.739 125.351C152.099 125.351 188.048 132.57 188.048 141.451Z" fill="#888787"/>
<path d="M178.68 52.4932H37.079C32.0412 52.4932 27.973 55.5225 27.973 59.2737L34.9728 128.705C34.9728 130.67 36.1094 132.425 37.8913 133.668C42.2314 143.21 70.2011 150.609 107.103 150.609C143.199 150.609 170.625 143.537 176.02 134.318C178.421 133.085 179.997 131.044 179.997 128.705L187.769 59.2737C187.769 55.5225 183.701 52.4932 178.677 52.4932" fill="#FF2C68"/>
<path d="M88.6684 133.668C87.7584 133.054 87.0268 132.293 86.5233 131.436C86.0197 130.58 85.756 129.649 85.7499 128.705L81.2035 59.2737C81.2035 55.5225 85.2717 52.4932 90.2963 52.4932H36.676C31.6415 52.4932 27.5864 55.5225 27.5864 59.2737L34.5862 128.705C34.5862 130.67 35.7097 132.425 37.5047 133.668C41.8317 143.21 69.8014 150.609 106.717 150.609C116.196 150.609 125.249 150.114 133.54 149.227C109.53 146.667 91.8915 140.76 88.6749 133.681" fill="#FF2C68"/>
<path d="M108.04 127.994C143.681 127.994 174.107 120.744 186.105 110.532L187.019 95.9269C175.683 106.569 144.611 114.214 108.046 114.214C71.2032 114.214 39.9253 106.453 28.8114 95.682L29.5877 110.187C41.3141 120.576 72.009 127.994 108.04 127.994Z" fill="#FFDD7D"/>
<path d="M107.87 81.9973C153.547 81.9973 190.577 72.111 190.577 59.9156C190.577 47.7203 153.547 37.834 107.87 37.834C62.1918 37.834 25.1626 47.7203 25.1626 59.9156C25.1626 72.111 62.1918 81.9973 107.87 81.9973Z" fill="#FFDD7D"/>
<path d="M195.385 62.3906C195.385 63.873 194.858 65.3219 193.849 66.7399C193.59 67.0854 193.292 67.5391 192.994 67.8794C191.173 69.9007 191.173 72.3705 189.803 74.5465C187.723 76.3666 185.621 78.2976 183.439 80.208C180.986 82.6882 178.572 84.9131 176.167 86.5915C165.473 101.98 147.022 93.7355 129.95 89.4068C127.008 88.7984 123.972 88.0739 120.654 87.352C117.398 86.8423 114.081 86.6107 110.762 86.6611C105.223 86.9344 100.251 89.051 95.3832 88.7545C92.658 88.6101 90.1292 86.1403 87.0142 85.4906C86.3165 85.3566 85.4256 85.1219 84.7017 84.9595C84.0826 84.9492 83.4374 84.9595 82.8183 84.9698C81.269 85.1219 79.7065 85.3462 78.0524 85.5602C77.4071 85.6608 76.6439 85.8052 75.6383 86.0784C73.1981 87.0117 70.784 88.9943 68.8973 89.0459C55.9328 84.5625 39.9319 89.1464 28.8508 81.8065C22.7059 78.1481 25.1593 70.8082 23.4003 65.5256C22.8779 64.5299 22.6107 63.4627 22.6142 62.3855C22.6142 49.6495 61.2915 39.3216 108.993 39.3216C156.724 39.3267 195.385 49.6598 195.385 62.3906Z" fill="#FFDD7D"/>
<path d="M91.6394 74.3325C91.6394 63.36 126.753 54.4603 170.078 54.4603C174.248 54.4603 178.329 54.5402 182.319 54.7052C173.108 46.3186 142.783 40.1749 106.785 40.1749C63.4731 40.1749 28.3628 49.0592 28.3628 60.0368C28.3628 69.9574 57.0433 78.1868 94.5284 79.6641C92.6679 77.9651 91.6492 76.1862 91.6492 74.3325" fill="#FFDD7D"/>
<path d="M182.28 72.6258C181.995 73.0176 181.67 73.3889 181.363 73.7756C180.95 73.8452 180.59 73.938 180.445 74.0489C175.884 77.3386 170.649 79.998 164.962 81.9148C164.497 82.0256 164.058 82.1494 163.619 82.2499C162.224 82.6057 159.937 83.1136 158.129 83.8458C154.464 84.6785 150.058 85.818 148.768 88.4297C148.702 88.5534 148.846 88.6437 149.027 88.6746C165.375 91.2527 178.896 81.0021 185.123 72.3215C185.398 71.9348 182.633 72.1153 182.27 72.6258H182.28ZM163.495 84.4387C162.271 84.9238 161.001 85.3349 159.698 85.6685C160.409 85.403 161.094 85.1606 161.48 85.0291C162.152 84.8229 162.823 84.6321 163.495 84.4387ZM152.027 87.3958C152.218 87.5283 152.449 87.6198 152.698 87.6614C152.554 87.9166 153.409 87.9553 153.835 87.9166C154.068 87.8934 154.287 87.8728 154.52 87.8444C155.758 87.9166 157.075 87.896 158.431 87.7851H158.483C159.729 87.7104 160.96 87.5227 162.152 87.2257C162.306 87.1844 162.476 87.1664 162.63 87.1251C162.116 87.285 161.598 87.4397 161.067 87.5815C159.646 87.9759 152.053 88.574 152.027 87.3958Z" fill="white"/>
<path d="M28.9425 69.1531C29.4208 71.3341 30.7244 73.1079 33.6036 73.8891C33.9148 73.9793 36.0832 73.6648 35.7589 73.2987C33.9246 71.2362 32.2737 69.086 30.4394 67.0209C30.0267 66.5491 27.8321 67.2298 28.0614 67.4953C29.8957 69.563 31.5597 71.708 33.3841 73.7679C34.108 73.5745 34.8287 73.3709 35.5394 73.1672C32.8535 72.435 31.7562 70.6561 31.3304 68.6761C31.242 68.2533 28.8377 68.6555 28.9425 69.1531Z" fill="white"/>
<path d="M98.2493 40.9973C95.9139 47.6644 95.7206 55.9505 97.8366 62.8005C98.6883 65.5952 100.159 69.7022 103.814 71.0041C107.611 72.3344 111.266 71.3083 113.061 68.4002C114.663 65.8479 114.237 62.2514 113.579 59.4748C111.695 51.5058 111.771 44.8284 118.138 38.1511C118.397 37.8959 119.455 34.338 118.98 33.8714C111.473 26.4799 100.742 33.9616 98.2493 40.9948" fill="#8A603E"/>
<path d="M112.285 30.855C106.189 30.5894 100.044 35.8978 98.2329 40.9999C95.8975 47.6773 95.7042 55.9634 97.8071 62.8031C98.6718 65.5978 100.143 69.7048 103.798 71.0067C104.289 71.1743 104.781 71.3006 105.259 71.4012C102.082 57.0281 103.012 43.4672 112.285 30.855Z" fill="#7BE0F7"/>
<path d="M126.324 36.893C124.955 33.0928 121.778 29.4938 118.459 26.2531C115.993 23.8631 113.425 21.8625 112.095 19.0756C110.48 15.6827 112.832 11.1272 112.78 7.61063C112.78 7.44821 112.74 7.30383 112.714 7.15172C112.922 5.5206 112.68 3.87335 112.003 2.3229C110.621 -1.00031 102.449 0.407348 103.841 3.74602C107.948 13.5841 85.3996 19.4803 83.6832 29.156C81.8358 39.5948 93.251 51.0495 108.309 55.2776C110.827 55.9892 113.176 55.1358 114.224 53.955C125.345 50.6447 129.062 44.5655 126.324 36.893Z" fill="#D7B62A"/>
<path d="M102.098 29.1766C102.822 25.1006 107.25 21.6898 111.833 18.3717C110.814 15.0794 112.802 10.9106 112.763 7.64928C112.763 7.47655 112.724 7.33475 112.698 7.18264C112.904 5.69764 112.711 4.10178 111.987 2.35381C110.605 -0.969391 102.432 0.453734 103.824 3.77694C107.932 13.6254 85.3831 19.5112 83.6667 29.1766C81.8193 39.6361 93.2345 51.0804 108.292 55.3085C110.811 56.0201 113.16 55.177 114.208 53.9859C115.794 53.5156 117.326 52.9413 118.79 52.2689C107.883 46.8729 100.588 37.6999 102.098 29.1766Z" fill="#FBCD0F"/>
<path d="M142.636 64.0406C141.447 65.6107 139.652 66.495 138.617 66.0232C137.595 65.5359 137.729 63.873 138.902 62.303L165.699 26.7377C166.885 25.1625 168.683 24.273 169.718 24.7551C170.737 25.2321 170.606 26.9001 169.433 28.4754L142.636 64.0406Z" fill="#FAA92F"/>
<path d="M180.151 20.0707L190.57 26.7068L177.533 29.187L172.735 39.0586L165.699 30.0635L152.292 29.5247L160.992 21.4732L157.52 11.269L169.921 15.2935L181.169 9.52618L180.151 20.0707Z" fill="#DE2833"/>
<path d="M177.763 13.7285C178.742 12.3105 179.879 10.9853 181.156 9.74525L181.169 9.52869L169.921 15.296L157.51 11.2689L160.995 21.4731L152.292 29.5246L165.699 30.0635L172.735 39.0688L174.775 34.8717C172.219 27.7877 173.292 20.1973 177.763 13.7285Z" fill="#DE2833"/>
<path d="M77.6921 61.643C78.4553 62.8934 78.4029 64.1541 77.5906 64.4583C76.7651 64.7625 75.4975 63.9994 74.7474 62.749L57.7278 34.534C56.9777 33.2836 57.017 32.0332 57.8457 31.7187C58.6613 31.4248 59.9257 32.1853 60.6856 33.4254L77.6921 61.643Z" fill="#FAA92F"/>
<path d="M58.5009 24.5952L68.1997 22.2466L64.6753 29.736L70.5123 36.2484L60.3745 35.9364L54.2919 42.3199L51.5535 34.637L41.9464 32.0589L50.3907 27.6271L50.5479 19.6478L58.5009 24.5952Z" fill="#DE2833"/>
<path d="M52.4412 23.1C51.7333 22.0268 51.1543 20.9038 50.7117 19.7459L50.5447 19.6427L50.3907 27.622L41.9464 32.0538L51.5535 34.6319L54.2919 42.3148L60.3745 35.9313L70.5123 36.2562L68.0327 33.4821C61.3051 31.7627 55.7055 28.0312 52.4412 23.0923" fill="#DE2833"/>
</svg>
