<svg width="235" height="168" viewBox="0 0 235 168" fill="none" xmlns="http://www.w3.org/2000/svg">
<path d="M117.5 162.75C178.338 162.75 227.656 147.942 227.656 129.675C227.656 111.408 178.338 96.6 117.5 96.6C56.6624 96.6 7.34375 111.408 7.34375 129.675C7.34375 147.942 56.6624 162.75 117.5 162.75Z" fill="#D0D0D0"/>
<path d="M28.2734 65.1V124.163C28.2734 139.125 68.2969 151.2 117.5 151.2C166.703 151.2 206.727 139.125 206.727 124.425V65.1H28.2734Z" fill="#D3976E"/>
<path d="M206.727 82.425C206.359 92.925 150.18 104.475 117.5 104.475C84.8203 104.475 28.6406 92.925 28.2734 82.425V98.4375C74.1719 122.062 160.828 122.062 206.727 98.4375V82.425Z" fill="#FFDD7D"/>
<path d="M206.727 107.625C206.359 118.125 150.18 129.675 117.5 129.675C84.8203 129.675 28.6406 118.125 28.2734 107.625V123.637C74.1719 147.262 160.828 147.262 206.727 123.637V107.625Z" fill="#FFDD7D"/>
<path d="M28.2734 65.1V109.463C28.2734 111.825 31.2109 113.925 35.25 113.925C38.9219 113.925 42.2266 112.088 42.2266 109.463V99.225C42.2266 96.075 46.2656 93.45 51.4062 93.45C56.5469 93.45 60.5859 96.075 60.5859 99.225V111.825C60.5859 115.5 65.3594 118.65 71.2344 118.65C77.1094 118.65 81.8828 115.763 81.8828 111.825V98.9625C81.8828 95.55 86.2891 92.925 91.4297 92.925C96.5703 92.925 100.977 95.55 100.977 98.9625V107.1C100.977 108.938 103.18 110.513 106.484 110.513C109.422 110.513 111.992 108.938 111.992 107.1V100.538C111.992 98.175 114.93 96.075 118.969 96.075C122.641 96.075 125.945 97.9125 125.945 100.538V111.563C125.945 115.238 130.719 118.388 136.594 118.388C142.469 118.388 147.242 115.5 147.242 111.563V99.225C147.242 96.075 151.281 93.45 156.422 93.45C161.562 93.45 165.602 96.075 165.602 99.225V108.413C165.602 110.25 168.172 111.825 171.109 111.825C174.047 111.825 176.617 110.25 176.617 108.413V102.113C176.617 100.538 178.82 99.225 181.391 99.225C183.961 99.225 186.164 100.538 186.164 102.113V111.825C186.164 115.5 190.937 118.65 196.812 118.65C202.687 118.65 207.461 115.763 207.461 111.825V65.3625L28.2734 65.1Z" fill="#A80038"/>
<path d="M117.5 91.875C166.778 91.875 206.727 79.8874 206.727 65.1C206.727 50.3126 166.778 38.325 117.5 38.325C68.2215 38.325 28.2734 50.3126 28.2734 65.1C28.2734 79.8874 68.2215 91.875 117.5 91.875Z" fill="#FF2C68"/>
<path d="M52.875 62.475C52.5078 45.4125 158.258 43.05 158.625 58.275C158.992 69.5625 91.4297 70.0875 91.0625 61.1625C90.6953 54.8625 132.922 54.6 132.922 59.325C132.922 64.05 98.7735 64.8375 106.852 58.8C93.2657 66.15 136.594 66.4125 136.227 59.5875C135.859 51.7125 85.1875 52.7625 85.1875 60.9C85.5547 72.975 163.766 71.6625 163.398 58.0125C163.031 40.1625 45.8985 40.95 46.6328 62.2125C47.3672 85.575 161.195 93.975 198.281 64.3125C147.977 91.6125 53.2422 78.4875 52.875 62.475Z" fill="#FFA4A4"/>
<path d="M43.3281 30.45V58.8C43.3281 62.7375 55.0781 62.2125 55.0781 58.8V30.45C55.0781 26.5125 43.3281 26.5125 43.3281 30.45Z" fill="#42ADE2"/>
<path d="M55.0781 33.075L43.3281 37.5375V42.525L55.0781 38.325V33.075Z" fill="#428BC1"/>
<path d="M43.3281 51.1875V55.9125L55.0781 51.7125V46.725L43.3281 51.1875Z" fill="#428BC1"/>
<path d="M55.4453 24.15C55.4453 30.7125 43.3281 30.7125 43.3281 24.15C43.3281 22.05 49.5703 15.225 49.5703 15.225C49.5703 15.225 55.4453 22.05 55.4453 24.15Z" fill="#FF8B00"/>
<path d="M52.5078 26.25C52.5078 29.925 46.2656 29.925 46.2656 26.25C46.2656 25.2 49.2031 21.7875 49.2031 21.7875C49.2031 21.7875 52.5078 25.2 52.5078 26.25Z" fill="#FFF033"/>
<path d="M112.359 18.9V43.575C112.359 47.5125 122.641 46.725 122.641 43.575V18.9C122.641 14.9625 112.359 14.9625 112.359 18.9Z" fill="#42ADE2"/>
<path d="M122.641 21L112.359 24.9375V29.4L122.641 25.4625V21Z" fill="#428BC1"/>
<path d="M112.359 36.75V40.95L122.641 37.275V33.075L112.359 36.75Z" fill="#428BC1"/>
<path d="M122.641 13.125C122.641 19.1625 111.992 19.1625 111.992 13.125C111.992 11.2875 117.133 5.25 117.133 5.25C117.133 5.25 122.641 11.2875 122.641 13.125Z" fill="#FF8B00"/>
<path d="M120.07 14.9625C120.07 18.6375 114.93 18.6375 114.93 14.9625C114.93 13.9125 117.5 11.025 117.5 11.025C117.5 11.025 120.07 13.9125 120.07 14.9625Z" fill="#FFF033"/>
<path d="M179.555 30.45V58.8C179.555 62.7375 191.305 62.2125 191.305 58.8V30.45C191.305 26.5125 179.555 26.5125 179.555 30.45Z" fill="#42ADE2"/>
<path d="M191.305 33.075L179.555 37.5375V42.525L191.305 38.0625V33.075Z" fill="#428BC1"/>
<path d="M179.555 51.1875V55.9125L191.305 51.45V46.725L179.555 51.1875Z" fill="#428BC1"/>
<path d="M191.672 24.15C191.672 30.7125 179.555 30.7125 179.555 24.15C179.555 22.05 185.797 15.225 185.797 15.225C185.797 15.225 191.672 21.7875 191.672 24.15Z" fill="#FF8B00"/>
<path d="M188.734 25.9875C188.734 29.6625 182.492 29.6625 182.492 25.9875C182.492 24.9375 185.43 21.525 185.43 21.525C185.43 21.525 188.734 24.9375 188.734 25.9875Z" fill="#FFF033"/>
<path d="M73.4375 48.0375V82.425C73.4375 86.8875 87.7578 85.8375 87.7578 82.425V48.0375C87.7578 43.8375 73.4375 43.8375 73.4375 48.0375Z" fill="#9FE4FF"/>
<path d="M87.7578 51.45L73.4375 56.4375V62.7375L87.7578 57.4875V51.45Z" fill="#42ADE2"/>
<path d="M73.4375 72.975V78.75L87.7578 73.7625V67.9875L73.4375 72.975Z" fill="#42ADE2"/>
<path d="M88.125 40.425C88.125 47.5125 73.4375 47.5125 73.4375 40.425C73.4375 37.8 80.7812 29.4 80.7812 29.4C80.7812 29.4 88.125 37.8 88.125 40.425Z" fill="#FF8B00"/>
<path d="M84.4531 42.7875C84.4531 46.725 77.1094 46.725 77.1094 42.7875C77.1094 41.475 80.7812 37.275 80.7812 37.275C80.7812 37.275 84.4531 41.475 84.4531 42.7875Z" fill="#FFF033"/>
<path d="M146.875 48.0375V82.425C146.875 86.8875 161.195 85.8375 161.195 82.425V48.0375C161.195 43.575 146.875 43.575 146.875 48.0375Z" fill="#9FE4FF"/>
<path d="M161.195 51.1875L146.875 56.4375V62.475L161.195 57.4875V51.1875Z" fill="#42ADE2"/>
<path d="M146.875 72.975V78.75L161.195 73.5V67.725L146.875 72.975Z" fill="#42ADE2"/>
<path d="M161.562 40.1625C161.562 47.25 146.875 47.25 146.875 40.1625C146.875 37.5375 154.219 29.1375 154.219 29.1375C154.219 29.1375 161.562 37.8 161.562 40.1625Z" fill="#FF8B00"/>
<path d="M157.891 42.7875C157.891 46.725 150.547 46.725 150.547 42.7875C150.547 41.475 154.219 37.275 154.219 37.275C154.219 37.275 157.891 41.475 157.891 42.7875Z" fill="#FFF033"/>
</svg>
